# Wavefront OBJ exported by MilkShape 3D

mtllib sphere3.mtl

v -0.170702 10.596560 -7.047224
v -0.170702 6.865848 -7.047224
v 0.761978 7.115757 -7.047224
v 0.637021 7.115757 -6.580884
v 0.295637 7.115757 -6.239500
v -0.170702 7.115757 -6.114544
v -0.637042 7.115757 -6.239500
v -0.978425 7.115757 -6.580884
v -1.103381 7.115757 -7.047224
v -0.978425 7.115757 -7.513563
v -0.637042 7.115757 -7.854946
v -0.170702 7.115757 -7.979902
v 0.295637 7.115757 -7.854946
v 0.637021 7.115757 -7.513563
v 1.444744 7.798526 -7.047224
v 1.228317 7.798526 -6.239499
v 0.637022 7.798526 -5.648205
v -0.170702 7.798526 -5.431776
v -0.978426 7.798526 -5.648205
v -1.569721 7.798526 -6.239499
v -1.786149 7.798526 -7.047224
v -1.569721 7.798526 -7.854946
v -0.978426 7.798526 -8.446240
v -0.170702 7.798526 -8.662671
v 0.637022 7.798526 -8.446240
v 1.228317 7.798526 -7.854946
v 1.694654 8.731204 -7.047224
v 1.444744 8.731204 -6.114544
v 0.761978 8.731204 -5.431777
v -0.170702 8.731204 -5.181866
v -1.103381 8.731204 -5.431777
v -1.786149 8.731204 -6.114544
v -2.036060 8.731204 -7.047224
v -1.786149 8.731204 -7.979902
v -1.103381 8.731204 -8.662671
v -0.170702 8.731204 -8.912581
v 0.761978 8.731204 -8.662671
v 1.444744 8.731204 -7.979902
v 1.444744 9.663884 -7.047224
v 1.228317 9.663884 -6.239500
v 0.637021 9.663884 -5.648205
v -0.170702 9.663884 -5.431777
v -0.978425 9.663884 -5.648205
v -1.569720 9.663884 -6.239500
v -1.786149 9.663884 -7.047224
v -1.569720 9.663884 -7.854946
v -0.978425 9.663884 -8.446240
v -0.170702 9.663884 -8.662671
v 0.637021 9.663884 -8.446240
v 1.228317 9.663884 -7.854946
v 0.761978 10.346653 -7.047224
v 0.637022 10.346653 -6.580884
v 0.295637 10.346653 -6.239499
v -0.170702 10.346653 -6.114544
v -0.637042 10.346653 -6.239499
v -0.978426 10.346653 -6.580884
v -1.103381 10.346653 -7.047224
v -0.978426 10.346653 -7.513563
v -0.637042 10.346653 -7.854947
v -0.170702 10.346653 -7.979902
v 0.295637 10.346653 -7.854947
v 0.637022 10.346653 -7.513563
# 62 vertices

vt 0.000000 0.000000
vt 0.000000 0.166667
vt 0.083333 0.166667
vt 0.000000 1.000000
vt 0.083333 0.833333
vt 0.000000 0.833333
vt 0.083333 0.000000
vt 0.166667 0.166667
vt 0.083333 1.000000
vt 0.166667 0.833333
vt 0.166667 0.000000
vt 0.250000 0.166667
vt 0.166667 1.000000
vt 0.250000 0.833333
vt 0.250000 0.000000
vt 0.333333 0.166667
vt 0.250000 1.000000
vt 0.333333 0.833333
vt 0.333333 0.000000
vt 0.416667 0.166667
vt 0.333333 1.000000
vt 0.416667 0.833333
vt 0.416667 0.000000
vt 0.500000 0.166667
vt 0.416667 1.000000
vt 0.500000 0.833333
vt 0.500000 0.000000
vt 0.583333 0.166667
vt 0.500000 1.000000
vt 0.583333 0.833333
vt 0.583333 0.000000
vt 0.666667 0.166667
vt 0.583333 1.000000
vt 0.666667 0.833333
vt 0.666667 0.000000
vt 0.750000 0.166667
vt 0.666667 1.000000
vt 0.750000 0.833333
vt 0.750000 0.000000
vt 0.833333 0.166667
vt 0.750000 1.000000
vt 0.833333 0.833333
vt 0.833333 0.000000
vt 0.916667 0.166667
vt 0.833333 1.000000
vt 0.916667 0.833333
vt 0.916667 0.000000
vt 1.000000 0.166667
vt 0.916667 1.000000
vt 1.000000 0.833333
vt 0.000000 0.333333
vt 0.083333 0.333333
vt 0.166667 0.333333
vt 0.250000 0.333333
vt 0.333333 0.333333
vt 0.416667 0.333333
vt 0.500000 0.333333
vt 0.583333 0.333333
vt 0.666667 0.333333
vt 0.750000 0.333333
vt 0.833333 0.333333
vt 0.916667 0.333333
vt 1.000000 0.333333
vt 0.000000 0.500000
vt 0.083333 0.500000
vt 0.166667 0.500000
vt 0.250000 0.500000
vt 0.333333 0.500000
vt 0.416667 0.500000
vt 0.500000 0.500000
vt 0.583333 0.500000
vt 0.666667 0.500000
vt 0.750000 0.500000
vt 0.833333 0.500000
vt 0.916667 0.500000
vt 1.000000 0.500000
vt 0.000000 0.666667
vt 0.083333 0.666667
vt 0.166667 0.666667
vt 0.250000 0.666667
vt 0.333333 0.666667
vt 0.416667 0.666667
vt 0.500000 0.666667
vt 0.583333 0.666667
vt 0.666667 0.666667
vt 0.750000 0.666667
vt 0.833333 0.666667
vt 0.916667 0.666667
vt 1.000000 0.666667
# 89 texture coordinates

vn 0.000000 -1.000000 -0.000000
vn 0.573583 -0.819147 -0.000000
vn 0.431480 -0.867045 0.249116
vn -0.000000 1.000000 -0.000000
vn 0.431480 0.867045 0.249115
vn 0.573583 0.819147 -0.000000
vn 0.286791 -0.819147 0.496738
vn 0.286791 0.819147 0.496738
vn 0.000000 -0.867044 0.498231
vn 0.000000 0.867045 0.498230
vn -0.286792 -0.819147 0.496738
vn -0.286791 0.819147 0.496738
vn -0.431480 -0.867045 0.249115
vn -0.431480 0.867045 0.249115
vn -0.573583 -0.819147 -0.000000
vn -0.573583 0.819147 -0.000000
vn -0.431480 -0.867044 -0.249116
vn -0.431480 0.867045 -0.249115
vn -0.286792 -0.819147 -0.496738
vn -0.286792 0.819147 -0.496738
vn 0.000000 -0.867045 -0.498231
vn 0.000000 0.867045 -0.498230
vn 0.286792 -0.819147 -0.496738
vn 0.286791 0.819147 -0.496738
vn 0.431480 -0.867044 -0.249116
vn 0.431480 0.867045 -0.249116
vn 0.865034 -0.501714 -0.000000
vn 0.749141 -0.501714 0.432516
vn 0.432516 -0.501714 0.749141
vn 0.000000 -0.501714 0.865034
vn -0.432517 -0.501714 0.749141
vn -0.749141 -0.501714 0.432517
vn -0.865033 -0.501714 -0.000000
vn -0.749141 -0.501714 -0.432517
vn -0.432517 -0.501715 -0.749140
vn 0.000000 -0.501715 -0.865033
vn 0.432517 -0.501715 -0.749140
vn 0.749141 -0.501714 -0.432517
vn 1.000000 -0.000000 -0.000000
vn 0.866026 -0.000000 0.499999
vn 0.500000 0.000000 0.866026
vn -0.000000 0.000000 1.000000
vn -0.500000 0.000000 0.866026
vn -0.866025 0.000000 0.500000
vn -1.000000 -0.000000 -0.000000
vn -0.866026 -0.000000 -0.500000
vn -0.500001 -0.000000 -0.866025
vn -0.000000 -0.000000 -1.000000
vn 0.500001 -0.000000 -0.866025
vn 0.866026 -0.000000 -0.499999
vn 0.865034 0.501713 -0.000000
vn 0.749141 0.501714 0.432517
vn 0.432516 0.501714 0.749141
vn 0.000000 0.501714 0.865034
vn -0.432517 0.501714 0.749141
vn -0.749141 0.501714 0.432517
vn -0.865034 0.501714 -0.000000
vn -0.749141 0.501714 -0.432517
vn -0.432517 0.501714 -0.749140
vn 0.000000 0.501715 -0.865033
vn 0.432517 0.501715 -0.749141
vn 0.749141 0.501714 -0.432517
# 62 normals

g Sphere05
usemtl boxMat
s 1
f 2/1/1 3/2/2 4/3/3
f 1/4/4 52/5/5 51/6/6
f 2/7/1 4/3/3 5/8/7
f 1/9/4 53/10/8 52/5/5
f 2/11/1 5/8/7 6/12/9
f 1/13/4 54/14/10 53/10/8
f 2/15/1 6/12/9 7/16/11
f 1/17/4 55/18/12 54/14/10
f 2/19/1 7/16/11 8/20/13
f 1/21/4 56/22/14 55/18/12
f 2/23/1 8/20/13 9/24/15
f 1/25/4 57/26/16 56/22/14
f 2/27/1 9/24/15 10/28/17
f 1/29/4 58/30/18 57/26/16
f 2/31/1 10/28/17 11/32/19
f 1/33/4 59/34/20 58/30/18
f 2/35/1 11/32/19 12/36/21
f 1/37/4 60/38/22 59/34/20
f 2/39/1 12/36/21 13/40/23
f 1/41/4 61/42/24 60/38/22
f 2/43/1 13/40/23 14/44/25
f 1/45/4 62/46/26 61/42/24
f 2/47/1 14/44/25 3/48/2
f 1/49/4 51/50/6 62/46/26
f 3/2/2 15/51/27 16/52/28
f 3/2/2 16/52/28 4/3/3
f 4/3/3 16/52/28 5/8/7
f 16/52/28 17/53/29 5/8/7
f 5/8/7 17/53/29 18/54/30
f 5/8/7 18/54/30 6/12/9
f 6/12/9 18/54/30 7/16/11
f 18/54/30 19/55/31 7/16/11
f 7/16/11 19/55/31 20/56/32
f 7/16/11 20/56/32 8/20/13
f 8/20/13 20/56/32 9/24/15
f 20/56/32 21/57/33 9/24/15
f 9/24/15 21/57/33 22/58/34
f 9/24/15 22/58/34 10/28/17
f 10/28/17 22/58/34 11/32/19
f 22/58/34 23/59/35 11/32/19
f 11/32/19 23/59/35 24/60/36
f 11/32/19 24/60/36 12/36/21
f 12/36/21 24/60/36 13/40/23
f 24/60/36 25/61/37 13/40/23
f 13/40/23 25/61/37 26/62/38
f 13/40/23 26/62/38 14/44/25
f 14/44/25 26/62/38 3/48/2
f 26/62/38 15/63/27 3/48/2
f 15/51/27 27/64/39 16/52/28
f 27/64/39 28/65/40 16/52/28
f 16/52/28 28/65/40 29/66/41
f 16/52/28 29/66/41 17/53/29
f 17/53/29 29/66/41 18/54/30
f 29/66/41 30/67/42 18/54/30
f 18/54/30 30/67/42 31/68/43
f 18/54/30 31/68/43 19/55/31
f 19/55/31 31/68/43 20/56/32
f 31/68/43 32/69/44 20/56/32
f 20/56/32 32/69/44 33/70/45
f 20/56/32 33/70/45 21/57/33
f 21/57/33 33/70/45 22/58/34
f 33/70/45 34/71/46 22/58/34
f 22/58/34 34/71/46 35/72/47
f 22/58/34 35/72/47 23/59/35
f 23/59/35 35/72/47 24/60/36
f 35/72/47 36/73/48 24/60/36
f 24/60/36 36/73/48 37/74/49
f 24/60/36 37/74/49 25/61/37
f 25/61/37 37/74/49 26/62/38
f 37/74/49 38/75/50 26/62/38
f 26/62/38 38/75/50 27/76/39
f 26/62/38 27/76/39 15/63/27
f 27/64/39 39/77/51 40/78/52
f 27/64/39 40/78/52 28/65/40
f 28/65/40 40/78/52 29/66/41
f 40/78/52 41/79/53 29/66/41
f 29/66/41 41/79/53 42/80/54
f 29/66/41 42/80/54 30/67/42
f 30/67/42 42/80/54 31/68/43
f 42/80/54 43/81/55 31/68/43
f 31/68/43 43/81/55 44/82/56
f 31/68/43 44/82/56 32/69/44
f 32/69/44 44/82/56 33/70/45
f 44/82/56 45/83/57 33/70/45
f 33/70/45 45/83/57 46/84/58
f 33/70/45 46/84/58 34/71/46
f 34/71/46 46/84/58 35/72/47
f 46/84/58 47/85/59 35/72/47
f 35/72/47 47/85/59 48/86/60
f 35/72/47 48/86/60 36/73/48
f 36/73/48 48/86/60 37/74/49
f 48/86/60 49/87/61 37/74/49
f 37/74/49 49/87/61 50/88/62
f 37/74/49 50/88/62 38/75/50
f 38/75/50 50/88/62 27/76/39
f 50/88/62 39/89/51 27/76/39
f 39/77/51 51/6/6 40/78/52
f 51/6/6 52/5/5 40/78/52
f 40/78/52 52/5/5 53/10/8
f 40/78/52 53/10/8 41/79/53
f 41/79/53 53/10/8 42/80/54
f 53/10/8 54/14/10 42/80/54
f 42/80/54 54/14/10 55/18/12
f 42/80/54 55/18/12 43/81/55
f 43/81/55 55/18/12 44/82/56
f 55/18/12 56/22/14 44/82/56
f 44/82/56 56/22/14 57/26/16
f 44/82/56 57/26/16 45/83/57
f 45/83/57 57/26/16 46/84/58
f 57/26/16 58/30/18 46/84/58
f 46/84/58 58/30/18 59/34/20
f 46/84/58 59/34/20 47/85/59
f 47/85/59 59/34/20 48/86/60
f 59/34/20 60/38/22 48/86/60
f 48/86/60 60/38/22 61/42/24
f 48/86/60 61/42/24 49/87/61
f 49/87/61 61/42/24 50/88/62
f 61/42/24 62/46/26 50/88/62
f 50/88/62 62/46/26 51/50/6
f 50/88/62 51/50/6 39/89/51
# 120 triangles in group

# 120 triangles total

